<svg xmlns="http://www.w3.org/2000/svg" width="865" height="288" viewBox="0 0 865 288" version="1.1"><path d="M 726.500 85.623 C 719.829 87.315, 717.677 88.481, 715.926 91.353 C 713.387 95.517, 713.423 102.330, 716.005 106.508 L 718.010 109.753 715.001 111 C 713.345 111.685, 710.643 113.782, 708.995 115.658 C 706.520 118.477, 706 119.940, 706 124.084 C 706 135.537, 713.627 141.554, 728 141.441 C 733.679 141.396, 736.519 140.852, 739.696 139.198 C 742.153 137.919, 744.139 137.415, 744.489 137.981 C 745.607 139.791, 755.171 141.996, 759.144 141.361 L 763 140.744 763 135.004 L 763 129.263 758.917 128.716 C 756.672 128.415, 754.567 127.901, 754.240 127.574 C 753.913 127.247, 754.867 125.705, 756.359 124.147 C 758.768 121.632, 763.603 111.269, 762.760 110.426 C 762.580 110.247, 759.457 109.795, 755.820 109.423 L 749.206 108.745 747.085 113.542 L 744.963 118.338 741.915 115.419 L 738.868 112.500 741.184 111.013 C 742.458 110.195, 744.737 108.235, 746.250 106.657 C 751.212 101.481, 749.406 90.813, 743.008 87.504 C 739.900 85.897, 729.908 84.758, 726.500 85.623 M 729.667 95.667 C 728.524 96.809, 728.996 100.410, 730.559 102.478 C 731.735 104.035, 732.421 104.226, 733.777 103.376 C 735.924 102.030, 736.546 98.363, 734.954 96.445 C 733.705 94.940, 730.818 94.515, 729.667 95.667 M 139 115.383 C 139 115.593, 142.037 117.690, 145.750 120.042 C 149.463 122.394, 155.988 126.554, 160.250 129.286 L 168 134.252 167.998 155.376 L 167.996 176.500 163.248 179.420 C 160.637 181.026, 154.252 185.076, 149.059 188.420 L 139.619 194.500 163.809 194.768 C 177.114 194.915, 198.804 194.915, 212.009 194.768 L 236.019 194.500 222.259 185.873 L 208.500 177.246 208.258 155.373 L 208.016 133.500 213.258 130.123 C 216.141 128.265, 222.188 124.550, 226.695 121.866 C 231.202 119.183, 235.166 116.541, 235.504 115.994 C 235.908 115.341, 219.481 115, 187.559 115 C 160.852 115, 139 115.172, 139 115.383 M 723.200 119.200 C 721.474 120.926, 721.722 126.525, 723.593 128.078 C 725.543 129.695, 731.583 129.817, 733.130 128.270 C 733.971 127.429, 733.266 125.976, 730.380 122.602 C 726.277 117.805, 725.136 117.264, 723.200 119.200 M 400.759 166.359 C 389.492 170.572, 384 179.588, 384 193.871 C 384 202.642, 385.115 206.811, 388.885 212.138 C 392.519 217.273, 396.808 219.900, 403.613 221.162 C 417.444 223.725, 428.743 216.863, 431.459 204.250 L 432.159 201 425.079 201 C 416.078 201, 416.670 200.791, 415.500 204.385 C 414.362 207.882, 410.699 209.643, 406.669 208.632 C 402.604 207.612, 401.536 204.541, 401.517 193.823 C 401.497 182.596, 403.276 178.743, 408.733 178.195 C 412.297 177.837, 416 181.684, 416 185.744 C 416 188.188, 416.091 188.214, 423.433 187.843 C 427.521 187.637, 431.167 187.167, 431.535 186.799 C 432.739 185.594, 428.848 175.897, 425.741 172.358 C 424.070 170.455, 421.407 168.228, 419.823 167.409 C 415.631 165.241, 405.276 164.671, 400.759 166.359 M 659 170.500 L 659 176 666.500 176 L 674 176 674 170.500 L 674 165 666.500 165 L 659 165 659 170.500 M 609 193.500 L 609 221 617 221 L 625 221 625 193.500 L 625 166 617 166 L 609 166 609 193.500 M 633.625 170.125 C 633.281 171.844, 633 174.740, 633 176.562 C 633 179.567, 632.699 179.902, 629.750 180.187 C 626.558 180.494, 626.500 180.590, 626.500 185.500 C 626.500 190.211, 626.659 190.518, 629.250 190.816 L 632 191.133 632 201.501 C 632 207.204, 632.422 212.981, 632.939 214.339 C 635.208 220.307, 641.516 222.804, 651.019 221.497 L 656 220.812 656 215.467 L 656 210.121 652.250 209.810 L 648.500 209.500 648.213 200.313 L 647.927 191.125 651.713 190.813 L 655.500 190.500 655.500 185.500 L 655.500 180.500 651.750 180.190 L 648 179.879 648 173.440 L 648 167 641.125 167 L 634.250 167 633.625 170.125 M 758.024 171.118 C 754.235 171.905, 751 175.126, 751 178.111 C 751 179.798, 750.184 180, 743.366 180 C 733.806 180, 728.569 181.535, 725.441 185.253 C 722.008 189.333, 722.078 195.429, 725.601 199.106 L 728.203 201.821 725.676 203.477 C 721.295 206.347, 720.196 214.149, 723.854 216.410 C 724.392 216.742, 723.520 218.326, 721.916 219.930 C 718.641 223.205, 718.363 224.868, 720.425 228.855 C 722.601 233.062, 726.366 234.303, 738.438 234.792 C 754.287 235.433, 761.601 233.351, 764.853 227.274 C 766.678 223.865, 766.196 218.587, 763.728 214.924 C 760.935 210.780, 756.181 209.182, 746.332 209.077 C 738.394 208.992, 736 208.403, 736 206.536 C 736 205.688, 738.519 205.113, 743.832 204.749 C 756.149 203.905, 762.007 199.859, 761.996 192.203 C 761.994 190.716, 761.094 188.027, 759.996 186.226 C 758.898 184.425, 758 182.738, 758 182.476 C 758 182.214, 759.800 182, 762 182 L 766 182 766 176.617 C 766 171.825, 765.753 171.187, 763.750 170.814 C 762.513 170.584, 759.936 170.720, 758.024 171.118 M 446.500 181.200 C 441.366 182.984, 436.079 188.920, 434.361 194.830 C 432.624 200.806, 433.097 205.309, 436.074 211.146 C 443.034 224.788, 466.715 225.403, 475.113 212.160 C 480.223 204.103, 478.705 191.639, 471.847 185.346 C 466.516 180.453, 454.369 178.466, 446.500 181.200 M 480 200.500 L 480 221 488 221 L 496 221 496 207.023 C 496 193.210, 496.029 193.027, 498.505 191.405 C 500.524 190.082, 501.300 190.004, 502.505 191.004 C 503.705 192, 504 195.084, 504 206.622 L 504 221 512 221 L 520 221 520 204.547 C 520 194.373, 519.565 187.140, 518.861 185.595 C 515.982 179.277, 502.177 177.966, 496.655 183.488 C 495.115 185.028, 495 184.964, 495 182.571 C 495 180.038, 494.889 180, 487.500 180 L 480 180 480 200.500 M 532.279 181.276 C 524.912 184.075, 521.536 190.867, 524.128 197.676 C 525.958 202.486, 529.757 204.667, 539.574 206.545 C 548.303 208.216, 548.482 208.302, 547.655 210.457 C 546.715 212.906, 538.193 212.530, 535.411 209.916 C 533.482 208.105, 532.460 207.924, 527.596 208.531 C 524.496 208.919, 522.002 209.737, 522.004 210.365 C 522.013 213.047, 526.326 218.241, 529.772 219.719 C 534.327 221.672, 547.975 221.946, 553.085 220.188 C 558.783 218.227, 562.203 213.947, 562.767 208.072 C 563.216 203.403, 563.010 202.810, 559.846 199.646 C 557.246 197.046, 555.033 195.966, 550.471 195.071 C 547.187 194.426, 542.925 193.584, 541 193.199 C 538.866 192.773, 537.500 191.914, 537.500 191 C 537.500 188.745, 544.690 188.409, 547.059 190.553 C 548.525 191.880, 549.916 192.090, 553.589 191.539 C 560.940 190.437, 561.182 190.253, 559.519 187.037 C 558.732 185.515, 556.381 183.438, 554.294 182.421 C 549.673 180.169, 536.938 179.507, 532.279 181.276 M 564 197.050 C 564 217.123, 564.643 219.288, 571.119 221.032 C 576.484 222.477, 582.732 221.359, 585.660 218.430 L 588 216.091 588 218.545 C 588 220.947, 588.172 221, 596.021 221 L 604.041 221 603.771 200.750 L 603.500 180.500 595.500 180.500 L 587.500 180.500 587.255 193 C 586.938 209.193, 586.735 210, 582.981 210 C 579.592 210, 579.814 211.188, 579.992 193.964 C 580.052 188.170, 579.806 182.657, 579.444 181.714 C 578.905 180.309, 577.453 180, 571.393 180 L 564 180 564 197.050 M 659 200.500 L 659 221 666.500 221 L 674 221 674 200.500 L 674 180 666.500 180 L 659 180 659 200.500 M 679.667 180.667 C 679.300 181.033, 679 190.258, 679 201.167 L 679 221 687 221 L 695 221 695 207.023 C 695 193.210, 695.029 193.027, 697.505 191.405 C 699.524 190.082, 700.300 190.004, 701.505 191.004 C 702.705 192, 703 195.084, 703 206.622 L 703 221 711 221 L 719 221 719 204.547 C 719 186.285, 718.427 183.905, 713.460 181.548 C 707.629 178.781, 697.453 180.328, 694.765 184.390 C 694.360 185.002, 694.024 184.266, 694.015 182.750 C 694 180.020, 693.951 180, 687.167 180 C 683.408 180, 680.033 180.300, 679.667 180.667 M 739.612 188.294 C 738.369 189.203, 737.940 190.617, 738.171 193.044 C 738.486 196.355, 738.668 196.500, 742.500 196.500 C 746.332 196.500, 746.514 196.355, 746.829 193.044 C 747.153 189.638, 745.264 187, 742.500 187 C 741.885 187, 740.586 187.582, 739.612 188.294 M 452.861 190.912 C 450.739 192.630, 450.500 193.626, 450.500 200.758 C 450.500 206.013, 450.963 209.251, 451.872 210.346 C 453.701 212.550, 458.673 212.490, 459.849 210.250 C 462.724 204.774, 461.836 192.816, 458.365 190.278 C 456.074 188.603, 455.652 188.651, 452.861 190.912 M 93 210 C 90.904 212.096, 90.388 216.484, 91.947 218.948 C 92.548 219.898, 92.677 219.013, 92.324 216.377 C 91.926 213.412, 92.225 211.918, 93.464 210.679 C 95.641 208.502, 99.790 208.535, 102.421 210.750 C 104.498 212.498, 104.498 212.498, 102.595 210.250 C 100.205 207.427, 95.691 207.309, 93 210 M 114 218 C 114 222.667, 114.417 226, 115 226 C 115.550 226, 116 224.650, 116 223 C 116 220.350, 116.341 220, 118.929 220 C 122.259 220, 125 217.742, 125 215 C 125 211.995, 122.179 210, 117.929 210 L 114 210 114 218 M 156 218 C 156 222.667, 156.417 226, 157 226 C 157.583 226, 158 222.667, 158 218 C 158 213.333, 157.583 210, 157 210 C 156.417 210, 156 213.333, 156 218 M 228 212 C 225.052 214.948, 225.285 221.376, 228.455 224.545 C 229.805 225.895, 231.605 227, 232.455 227 C 234.278 227, 238 223.517, 238 221.811 C 238 221.158, 237.082 221.608, 235.961 222.811 C 233.370 225.593, 231.522 225.583, 229.557 222.777 C 226.516 218.437, 228.265 212, 232.485 212 C 233.814 212, 235.339 212.784, 235.875 213.742 C 237.260 216.216, 238.396 214.609, 237.046 212.086 C 235.590 209.365, 230.682 209.318, 228 212 M 275 212.567 C 275 214.615, 274.624 215.015, 273.141 214.545 C 267.071 212.618, 264.019 222.799, 269.747 225.865 C 270.789 226.422, 272.204 226.492, 272.963 226.023 C 273.709 225.562, 274.922 225.417, 275.659 225.700 C 276.712 226.104, 277 224.474, 277 218.107 C 277 213.369, 276.584 210, 276 210 C 275.450 210, 275 211.155, 275 212.567 M 294.220 218 C 294.101 225.824, 294.195 226.262, 295.406 223.500 C 296.130 221.850, 296.366 220.041, 295.930 219.480 C 295.494 218.920, 294.960 216.445, 294.743 213.980 C 294.522 211.459, 294.293 213.217, 294.220 218 M 95.200 212.200 C 93.664 213.736, 93.664 216.264, 95.200 217.800 C 96.555 219.155, 99.633 219.403, 100.366 218.216 C 100.633 217.785, 99.647 217.448, 98.175 217.466 C 95.979 217.494, 95.500 217.052, 95.500 215 C 95.500 212.948, 95.979 212.506, 98.175 212.534 C 99.647 212.552, 100.633 212.215, 100.366 211.784 C 99.633 210.597, 96.555 210.845, 95.200 212.200 M 116 215 C 116 217.925, 116.209 218.107, 119.250 217.813 C 121.966 217.551, 122.500 217.090, 122.500 215 C 122.500 212.910, 121.966 212.449, 119.250 212.187 C 116.209 211.893, 116 212.075, 116 215 M 131 215 C 130.228 215.477, 129.237 215.646, 128.798 215.375 C 128.359 215.104, 128 217.384, 128 220.441 C 128 223.498, 128.450 226, 129 226 C 129.550 226, 130 224.044, 130 221.653 C 130 218.145, 130.422 217.117, 132.189 216.329 C 133.393 215.792, 133.934 215.077, 133.391 214.742 C 132.849 214.406, 131.772 214.523, 131 215 M 136.637 215.506 C 133.188 218.955, 133.822 223.764, 138.023 226.012 C 142.185 228.240, 146.671 222.958, 144.810 218.020 C 143.240 213.856, 139.452 212.691, 136.637 215.506 M 162.079 219.917 C 161.992 226.949, 162.610 227.585, 163.559 221.442 C 164.278 216.791, 165.131 215.688, 167.644 216.165 C 169.070 216.436, 169.616 217.673, 170 221.509 C 170.362 225.120, 170.713 225.979, 171.270 224.616 C 172.287 222.129, 171.161 216.378, 169.366 214.889 C 168.311 214.013, 167.317 213.990, 165.537 214.801 C 163.736 215.622, 163.010 215.596, 162.645 214.698 C 162.377 214.039, 162.122 216.387, 162.079 219.917 M 176.200 215.200 C 173.941 217.459, 174.837 219.901, 178.248 220.785 C 182.194 221.807, 183.349 225, 179.773 225 C 178.468 225, 176.860 224.460, 176.200 223.800 C 175.267 222.867, 175 222.872, 175 223.825 C 175 225.761, 179.797 227.179, 182.126 225.932 C 185.147 224.316, 184.141 220.883, 180.265 219.584 C 175.933 218.133, 176.200 216.468, 180.738 216.632 C 184.084 216.752, 184.235 216.645, 182.507 215.382 C 180.182 213.682, 177.787 213.613, 176.200 215.200 M 188.540 215.347 C 187.263 216.281, 187.051 216.913, 187.849 217.406 C 188.482 217.798, 189 217.641, 189 217.059 C 189 216.477, 190.350 216, 192 216 C 196.300 216, 195.785 218.453, 191.250 219.574 C 188.520 220.248, 187.415 221.094, 187.189 222.682 C 186.805 225.381, 190.175 227.495, 192.750 226.170 C 193.713 225.675, 195.063 225.472, 195.750 225.718 C 197.317 226.280, 197.482 218.768, 195.965 215.934 C 194.764 213.690, 191.193 213.407, 188.540 215.347 M 203.527 214.956 C 203.202 215.482, 202.275 215.659, 201.468 215.349 C 200.285 214.895, 200 215.874, 200 220.393 C 200 223.477, 200.450 226, 201 226 C 201.550 226, 202.007 224.313, 202.015 222.250 C 202.034 217.612, 203.169 215.695, 205.620 216.161 C 207.090 216.440, 207.566 217.552, 207.805 221.259 C 207.972 223.867, 208.535 226, 209.055 226 C 210.434 226, 210.213 216.613, 208.800 215.200 C 207.362 213.762, 204.351 213.623, 203.527 214.956 M 214 219.941 C 214 223.314, 214.443 226, 215 226 C 215.550 226, 216 223.552, 216 220.559 C 216 217.566, 215.550 214.840, 215 214.500 C 214.375 214.114, 214 216.156, 214 219.941 M 242.637 215.506 C 239.165 218.978, 239.824 223.765, 244.090 226.048 C 245.677 226.898, 246.697 226.773, 248.654 225.491 C 251.572 223.579, 251.171 222.252, 248.230 224.089 C 245.739 225.644, 242.745 224.553, 243.194 222.253 C 243.440 220.997, 244.523 220.485, 247.015 220.448 C 250.981 220.390, 252.085 218.228, 249.479 215.621 C 247.448 213.591, 244.600 213.543, 242.637 215.506 M 257.527 214.956 C 257.202 215.482, 256.275 215.659, 255.468 215.349 C 254.285 214.895, 254 215.874, 254 220.393 C 254 223.477, 254.450 226, 255 226 C 255.550 226, 256 224.511, 256 222.691 C 256 218.563, 258.124 215.450, 260.355 216.306 C 261.547 216.763, 262 218.186, 262 221.469 C 262 223.961, 262.450 226, 263 226 C 264.650 226, 264.174 217.317, 262.429 215.571 C 260.660 213.803, 258.414 213.521, 257.527 214.956 M 281.637 215.506 C 278.165 218.978, 278.824 223.765, 283.090 226.048 C 284.677 226.898, 285.697 226.773, 287.654 225.491 C 290.572 223.579, 290.171 222.252, 287.230 224.089 C 284.714 225.660, 282 224.629, 282 222.101 C 282 220.862, 282.829 219.980, 284.250 219.706 L 286.500 219.272 284.167 219.136 C 281.063 218.955, 281.917 216.500, 285.083 216.500 C 286.771 216.500, 287.458 217.028, 287.361 218.250 C 287.285 219.213, 287.847 220, 288.611 220 C 290.475 220, 290.373 217.516, 288.429 215.571 C 286.444 213.587, 283.584 213.559, 281.637 215.506 M 305.667 214.667 C 304.597 215.736, 304.899 226, 306 226 C 306.556 226, 307 223.333, 307 220 C 307 213.946, 306.877 213.456, 305.667 214.667 M 312.750 215.056 C 311.788 215.630, 311 216.617, 311 217.250 C 311 218.089, 311.324 218.076, 312.200 217.200 C 313.959 215.441, 319 215.663, 319 217.500 C 319 218.415, 318.068 219, 316.611 219 C 315.297 219, 313.159 219.900, 311.861 221 L 309.500 223 311.915 225.044 C 313.362 226.269, 314.965 226.816, 315.915 226.410 C 316.787 226.038, 318.177 225.757, 319.005 225.786 C 320.232 225.829, 320.417 224.789, 320.005 220.169 C 319.545 215.009, 319.275 214.478, 317 214.257 C 315.625 214.123, 313.712 214.483, 312.750 215.056 M 298.646 217.095 C 297.332 218.971, 297.389 219.544, 299.188 222.595 C 300.293 224.468, 301.648 226, 302.198 226 C 302.748 226, 302.235 224.368, 301.058 222.374 C 299.040 218.953, 299.015 218.641, 300.614 216.874 C 301.547 215.843, 301.816 215, 301.212 215 C 300.608 215, 299.453 215.943, 298.646 217.095 M 137.124 218.180 C 135.873 221.540, 137.274 224.500, 140.115 224.500 C 142.231 224.500, 142.500 224.049, 142.500 220.500 C 142.500 217.110, 142.156 216.451, 140.244 216.180 C 138.633 215.951, 137.741 216.523, 137.124 218.180 M 243.709 216.624 C 242.223 218.110, 243.112 219, 246.083 219 C 248.103 219, 249.025 218.569, 248.755 217.750 C 248.288 216.332, 244.783 215.550, 243.709 216.624 M 269.143 218.142 C 267.446 222.730, 270.383 226.587, 273.564 223.947 C 275.965 221.954, 275.052 216.578, 272.244 216.180 C 270.640 215.952, 269.743 216.520, 269.143 218.142 M 190.750 220.689 C 189.787 220.941, 189 222.044, 189 223.140 C 189 226.159, 194.381 225.336, 194.820 222.250 C 195.139 219.999, 194.430 219.728, 190.750 220.689 M 314.250 220.662 C 312.283 221.456, 312.732 225, 314.800 225 C 316.906 225, 319 223.155, 319 221.300 C 319 220.010, 316.649 219.694, 314.250 220.662 M 732.441 222.096 C 731.039 224.365, 734.810 226.254, 741.663 226.715 C 749.163 227.219, 752.872 225.715, 751.694 222.645 C 751.173 221.288, 749.494 221, 742.090 221 C 736.664 221, 732.850 221.433, 732.441 222.096" stroke="none" fill="#220d98" fill-rule="evenodd"/><path d="M 61 56.321 C 61 56.728, 72.062 63.794, 84.750 71.492 L 91 75.284 91 96.132 L 91 116.980 85.750 120.329 C 82.862 122.171, 76.031 126.563, 70.570 130.089 L 60.640 136.500 85.750 136.767 C 99.561 136.914, 122.467 136.914, 136.654 136.767 L 162.447 136.500 153.270 130.500 C 148.223 127.200, 141.597 123.010, 138.547 121.188 C 133.346 118.084, 133 117.636, 133 114.014 L 133 110.151 164.250 109.719 C 192.065 109.335, 196.222 109.064, 202.065 107.258 C 211.347 104.390, 216.090 101.750, 220.264 97.129 C 228.100 88.456, 226.899 77.586, 217.173 69.150 C 213.545 66.003, 202.776 61.081, 194.500 58.785 C 186.696 56.621, 184.962 56.559, 123.750 56.235 C 89.237 56.052, 61 56.091, 61 56.321 M 133 82.926 L 133 94 152.032 94 C 176.940 94, 180 92.805, 180 83.082 C 180 80.021, 179.288 78.234, 177.084 75.766 L 174.168 72.500 153.584 72.176 L 133 71.853 133 82.926 M 493 90.500 L 493 96 501.500 96 L 510 96 510 90.500 L 510 85 501.500 85 L 493 85 493 90.500 M 557 90.500 L 557 96 565.500 96 L 574 96 574 90.500 L 574 85 565.500 85 L 557 85 557 90.500 M 382 93 L 382 100 387.500 100 L 393 100 393 120.539 L 393 141.078 401.709 140.789 L 410.418 140.500 410.459 120.500 L 410.500 100.500 416 100 L 421.500 99.500 421.796 92.750 L 422.091 86 402.046 86 L 382 86 382 93 M 651.923 92.923 C 650.315 94.531, 649 96.556, 649 97.423 C 649 98.719, 647.660 99, 641.468 99 C 629.944 99, 622.679 102.865, 621.401 109.677 C 620.651 113.674, 622.477 118.649, 625.235 120.126 C 627.140 121.145, 627.129 121.219, 624.848 122.734 C 619.812 126.078, 618.559 130.497, 621.468 134.651 C 622.790 136.539, 622.741 136.925, 620.968 138.529 C 619.886 139.508, 618.961 140.128, 618.913 139.905 C 618.865 139.682, 618.748 132.214, 618.653 123.309 C 618.495 108.616, 618.286 106.859, 616.393 104.309 C 613.504 100.419, 610.359 99.032, 604.385 99.015 C 600.767 99.004, 598.525 99.586, 596.727 101 C 595.329 102.100, 593.971 103, 593.709 103 C 593.447 103, 592.998 102.100, 592.710 101 C 592.260 99.280, 591.346 99, 586.175 99 C 576.325 99, 577 97.409, 577 120.607 L 577 141 585.500 141 L 594 141 594 127.723 C 594 114.044, 595.032 110, 598.522 110 C 601.213 110, 602 113.946, 602 127.434 L 602 141 610 141 L 618 141 618 144.927 C 618 152.531, 625.200 155.389, 642.974 154.844 C 652.162 154.562, 655.311 154.072, 658.500 152.432 C 665.919 148.615, 667.906 139.965, 662.842 133.527 C 659.907 129.795, 656.969 128.879, 645.580 128.142 C 639.016 127.717, 635.520 127.077, 635.247 126.250 C 634.942 125.327, 636.754 124.994, 642.167 124.978 C 650.394 124.953, 656.676 122.729, 659.367 118.886 C 661.642 115.639, 661.469 108.866, 659.033 105.769 C 656.697 102.800, 657.230 102, 661.542 102 C 664.335 102, 664.831 101.596, 665.375 98.875 C 665.719 97.156, 666 94.456, 666 92.875 C 666 90.052, 665.899 90, 660.423 90 C 655.592 90, 654.455 90.391, 651.923 92.923 M 422.709 99.624 C 422.319 100.014, 422 109.483, 422 120.667 L 422 141 430.500 141 L 439 141 439 129.071 C 439 115.608, 439.701 114, 445.571 114 C 447.457 114, 449 113.648, 449 113.217 C 449 112.787, 452.102 112.610, 455.893 112.824 C 461.927 113.165, 463.056 112.944, 464.952 111.048 C 467.912 108.088, 473.361 108.519, 473.820 111.750 C 474.096 113.694, 473.687 114.002, 470.820 114.012 C 466.630 114.027, 458.501 116.170, 454.206 118.393 C 447.384 121.922, 445.253 130.158, 449.488 136.622 C 453.189 142.271, 464.956 143.876, 471.268 139.593 C 474.648 137.299, 474.839 137.276, 475.314 139.093 C 475.751 140.764, 476.782 141, 483.656 141.002 L 491.500 141.003 490.952 124.752 C 490.625 115.021, 489.923 107.625, 489.204 106.320 C 486.566 101.526, 482.196 99.625, 472.782 99.175 C 462.505 98.684, 457.203 100.217, 452.173 105.135 L 449 108.237 449 103.619 L 449 99 445.423 99 C 442.818 99, 441.066 99.780, 438.977 101.869 L 436.108 104.739 435.804 102.119 C 435.518 99.654, 435.144 99.483, 429.459 99.208 C 426.136 99.047, 423.099 99.234, 422.709 99.624 M 493.705 99.628 C 493.317 100.016, 493 109.483, 493 120.667 L 493 141 501.520 141 L 510.041 141 509.770 120.250 L 509.500 99.500 501.955 99.212 C 497.805 99.053, 494.093 99.241, 493.705 99.628 M 513.667 99.667 C 513.300 100.033, 513 109.483, 513 120.667 L 513 141 521.500 141 L 530 141 530 127.071 C 530 115.534, 530.280 112.863, 531.629 111.514 C 532.525 110.618, 533.912 110.136, 534.711 110.442 C 535.510 110.749, 536.352 111, 536.582 111 C 536.812 111, 537 117.750, 537 126 L 537 141 545.500 141 L 554 141 554 124.450 C 554 106.127, 553.278 103.229, 548.033 100.517 C 543.904 98.382, 536.193 98.585, 532.347 100.930 C 529.236 102.827, 529.188 102.827, 528.691 100.926 C 528.255 99.258, 527.258 99, 521.260 99 C 517.450 99, 514.033 99.300, 513.667 99.667 M 557.705 99.628 C 557.317 100.016, 557 109.483, 557 120.667 L 557 141 565.520 141 L 574.041 141 573.770 120.250 L 573.500 99.500 565.955 99.212 C 561.805 99.053, 558.093 99.241, 557.705 99.628 M 638.571 108.571 C 637.707 109.436, 637 110.979, 637 112 C 637 114.170, 639.547 117, 641.500 117 C 643.453 117, 646 114.170, 646 112 C 646 109.830, 643.453 107, 641.500 107 C 640.754 107, 639.436 107.707, 638.571 108.571 M 274.176 113.074 C 260.814 114.808, 242.191 120.801, 232.391 126.521 C 216.763 135.642, 207.733 149.064, 209.463 160.600 C 210.192 165.465, 216.182 175.293, 220.771 179.154 C 225.677 183.282, 239.812 190.615, 248.458 193.518 C 260.180 197.453, 268.925 198.938, 284.574 199.650 C 312.053 200.902, 332.725 196.150, 347.130 185.269 C 352.878 180.927, 355.985 175.543, 356.692 168.698 C 357.175 164.013, 356.937 163.078, 354.529 160.216 C 353.040 158.447, 351.433 157, 350.956 157 C 350.480 157, 349.797 158.567, 349.437 160.482 C 347.946 168.430, 337.463 176.221, 323.824 179.517 C 309.831 182.899, 286.142 182.451, 274.943 178.592 C 264.375 174.951, 258.622 167.008, 258.584 156.003 C 258.556 147.963, 260.109 143.291, 264.204 139.103 C 276.008 127.029, 298.633 124.563, 323.500 132.640 C 334.739 136.290, 337.910 138.097, 345.128 144.966 C 348.616 148.285, 351.589 151, 351.735 151 C 351.881 151, 352 142.675, 352 132.500 C 352 122.325, 351.655 114, 351.234 114 C 350.813 114, 347.388 115.800, 343.623 118 L 336.778 122 327.353 118.470 C 312.109 112.761, 292.177 110.738, 274.176 113.074 M 467.166 124.597 C 463.892 126.890, 464.615 130.399, 468.451 130.836 C 471.793 131.216, 474 129.018, 474 125.309 C 474 122.502, 470.653 122.154, 467.166 124.597 M 166.998 155.298 L 167.497 177.500 167.769 156.070 C 167.918 144.284, 167.694 134.293, 167.270 133.869 C 166.847 133.444, 166.724 143.087, 166.998 155.298 M 632.446 142.087 C 632.077 142.685, 632.259 143.659, 632.852 144.252 C 634.172 145.572, 643.964 146.477, 647.454 145.601 C 650.291 144.889, 650.858 142.543, 648.418 141.607 C 645.694 140.562, 633.156 140.938, 632.446 142.087 M 658.189 170.750 L 658 177 666.500 177 L 675 177 674.811 170.750 L 674.622 164.500 674.261 170.250 L 673.900 176 666.500 176 L 659.100 176 658.739 170.250 L 658.378 164.500 658.189 170.750 M 625 193.500 C 625 208.808, 625.227 221.106, 625.504 220.829 C 626.203 220.131, 626.260 166.927, 625.563 166.230 C 625.254 165.920, 625 178.192, 625 193.500 M 639.768 166.725 C 641.565 166.947, 644.265 166.943, 645.768 166.715 C 647.271 166.486, 645.800 166.304, 642.500 166.310 C 639.200 166.315, 637.971 166.502, 639.768 166.725 M 763.690 170.648 C 765.040 170.941, 766.045 172.063, 766.311 173.574 C 766.688 175.707, 766.728 175.666, 766.622 173.262 C 766.525 171.063, 765.991 170.467, 764 170.336 C 761.916 170.200, 761.864 170.251, 763.690 170.648 M 540.264 179.718 C 541.784 179.947, 544.034 179.941, 545.264 179.704 C 546.494 179.467, 545.250 179.279, 542.500 179.286 C 539.750 179.294, 538.744 179.488, 540.264 179.718 M 740.250 179.716 C 741.763 179.945, 744.237 179.945, 745.750 179.716 C 747.263 179.487, 746.025 179.300, 743 179.300 C 739.975 179.300, 738.737 179.487, 740.250 179.716 M 562.956 190.750 C 562.932 196.662, 562.819 204.088, 562.705 207.250 C 562.591 210.412, 562.836 213, 563.249 213 C 563.662 213, 564 205.575, 564 196.500 C 564 187.425, 563.775 180, 563.500 180 C 563.225 180, 562.980 184.838, 562.956 190.750 M 658.423 200.500 C 658.424 212.050, 658.570 216.638, 658.747 210.696 C 658.924 204.753, 658.923 195.303, 658.745 189.696 C 658.567 184.088, 658.422 188.950, 658.423 200.500 M 674.423 200.500 C 674.424 212.050, 674.570 216.638, 674.747 210.696 C 674.924 204.753, 674.923 195.303, 674.745 189.696 C 674.567 184.088, 674.422 188.950, 674.423 200.500 M 383.328 194.500 C 383.333 198.350, 383.513 199.802, 383.730 197.728 C 383.946 195.653, 383.943 192.503, 383.722 190.728 C 383.501 188.952, 383.324 190.650, 383.328 194.500 M 401.320 194 C 401.320 197.575, 401.502 199.037, 401.723 197.250 C 401.945 195.463, 401.945 192.537, 401.723 190.750 C 401.502 188.963, 401.320 190.425, 401.320 194 M 520.328 205.500 C 520.309 214.355, 520.563 219.044, 520.897 216 C 521.229 212.975, 521.244 205.775, 520.931 200 C 520.417 190.515, 520.358 191.047, 520.328 205.500 M 631.370 201 C 631.370 206.775, 631.535 209.137, 631.737 206.250 C 631.939 203.363, 631.939 198.637, 631.737 195.750 C 631.535 192.863, 631.370 195.225, 631.370 201 M 719.221 206.917 C 719.100 215.946, 719.117 223.146, 719.261 222.917 C 719.404 222.687, 720.417 221.383, 721.511 220.017 C 723.008 218.149, 723.074 217.864, 721.777 218.867 C 720.167 220.112, 720.035 219.228, 719.748 205.350 L 719.442 190.500 719.221 206.917 M 139 194.500 C 137.896 195.830, 143.392 195.973, 187.628 195.760 L 237.500 195.519 188.697 195.250 C 156.798 195.074, 140.106 194.638, 140.506 193.990 C 141.450 192.462, 140.395 192.819, 139 194.500 M 450.300 201 C 450.300 204.025, 450.487 205.262, 450.716 203.750 C 450.945 202.238, 450.945 199.762, 450.716 198.250 C 450.487 196.738, 450.300 197.975, 450.300 201 M 478.300 201 C 478.300 204.025, 478.487 205.262, 478.716 203.750 C 478.945 202.238, 478.945 199.762, 478.716 198.250 C 478.487 196.738, 478.300 197.975, 478.300 201 M 100.875 208.345 C 100.806 208.705, 100.687 209.338, 100.610 209.750 C 100.533 210.162, 100.052 211.175, 99.543 212 C 98.755 213.275, 98.859 213.303, 100.238 212.185 C 101.609 211.075, 102.007 211.152, 102.804 212.685 C 103.904 214.804, 103.780 217.914, 102.511 220.018 C 101.741 221.294, 101.851 221.309, 103.308 220.128 C 105.726 218.166, 105.542 211.800, 103 209.500 C 101.900 208.505, 100.944 207.985, 100.875 208.345 M 113.201 218.250 C 113.023 225.998, 113.200 226.998, 114.750 226.985 C 115.943 226.974, 116.117 226.726, 115.296 226.204 C 114.575 225.746, 113.954 222.240, 113.747 217.469 L 113.402 209.500 113.201 218.250 M 155.201 218.250 C 155.023 225.998, 155.200 226.998, 156.750 226.985 C 157.943 226.974, 158.117 226.726, 157.296 226.204 C 156.575 225.746, 155.954 222.240, 155.747 217.469 L 155.402 209.500 155.201 218.250 M 277 218.107 C 277 224.474, 276.712 226.104, 275.659 225.700 C 274.922 225.417, 273.770 225.524, 273.099 225.939 C 272.377 226.385, 273.128 226.728, 274.940 226.779 L 278 226.866 278 218.433 C 278 213.795, 277.775 210, 277.500 210 C 277.225 210, 277 213.648, 277 218.107 M 293.186 218.250 C 293.033 225.444, 293.267 227, 294.500 227 C 295.423 227, 295.955 226.135, 295.884 224.750 C 295.776 222.655, 295.724 222.637, 295.135 224.500 C 294.786 225.600, 294.247 222.675, 293.937 218 L 293.373 209.500 293.186 218.250 M 295.180 214.191 C 295.081 216.771, 295.457 219.165, 296.016 219.510 C 296.575 219.856, 296.820 220.482, 296.560 220.902 C 296.301 221.323, 296.736 221.667, 297.528 221.667 C 298.518 221.667, 298.663 221.299, 297.993 220.491 C 297.456 219.845, 297.351 218.948, 297.759 218.498 C 298.166 218.048, 297.963 217.988, 297.306 218.364 C 296.470 218.844, 295.999 217.618, 295.736 214.275 L 295.360 209.500 295.180 214.191 M 91.980 212.750 C 92.783 214.408, 92.755 215.592, 91.871 217.250 C 90.807 219.248, 90.849 219.354, 92.247 218.201 C 93.324 217.314, 94.030 217.240, 94.480 217.968 C 94.842 218.553, 95.564 218.769, 96.085 218.447 C 96.606 218.125, 96.769 217.436, 96.447 216.915 C 96.125 216.394, 95.443 216.226, 94.931 216.543 C 94.419 216.859, 94 216.502, 94 215.750 C 94 214.998, 93.300 213.509, 92.445 212.441 C 90.951 210.577, 90.933 210.589, 91.980 212.750 M 127 220.500 C 127 226.054, 127.255 226.989, 128.750 226.921 C 129.795 226.874, 129.997 226.639, 129.250 226.338 C 128.464 226.020, 128 223.803, 128 220.358 C 128 216.962, 128.380 215.117, 129 215.500 C 129.550 215.840, 130 215.641, 130 215.059 C 130 214.477, 129.325 214, 128.500 214 C 127.321 214, 127 215.389, 127 220.500 M 161.193 220.250 C 161.038 225.669, 161.296 227, 162.500 227 C 163.410 227, 163.972 226.115, 163.930 224.750 C 163.863 222.609, 163.819 222.597, 163.029 224.500 C 162.432 225.935, 162.083 224.665, 161.792 220 L 161.385 213.500 161.193 220.250 M 213.189 220.250 C 213.026 226.089, 213.236 226.998, 214.750 226.985 C 215.930 226.974, 216.111 226.722, 215.307 226.211 C 214.650 225.793, 213.948 222.763, 213.746 219.476 L 213.378 213.500 213.189 220.250 M 298.921 215.750 C 297.794 217.239, 297.806 217.313, 298.998 216.250 C 301.284 214.211, 302.465 214.828, 300.479 217.024 C 299.026 218.629, 298.903 219.301, 299.883 220.274 C 300.861 221.244, 300.992 221.168, 300.514 219.910 C 300.181 219.036, 300.604 217.743, 301.454 217.038 C 302.305 216.332, 303 215.360, 303 214.878 C 303 213.351, 300.299 213.929, 298.921 215.750 M 307 219.917 C 307 223.714, 306.552 226.014, 305.750 226.338 C 305.003 226.639, 305.205 226.874, 306.250 226.921 C 307.745 226.989, 308 226.054, 308 220.500 C 308 216.925, 307.775 214, 307.500 214 C 307.225 214, 307 216.662, 307 219.917 M 168.843 221.593 C 169.085 225.412, 169.598 227, 170.593 227 C 171.367 227, 171.993 226.213, 171.985 225.250 C 171.972 223.754, 171.828 223.718, 171 225 C 170.298 226.086, 170.026 225.206, 170.015 221.809 C 170.007 219.229, 169.662 216.908, 169.250 216.652 C 168.838 216.396, 168.654 218.619, 168.843 221.593 M 320.286 220.500 C 320.294 223.250, 320.488 224.256, 320.718 222.736 C 320.947 221.216, 320.941 218.966, 320.704 217.736 C 320.467 216.506, 320.279 217.750, 320.286 220.500 M 261.392 221.422 C 261.468 224.884, 261.945 226.464, 263 226.748 C 264.037 227.027, 264.135 226.892, 263.319 226.310 C 262.669 225.846, 261.946 223.450, 261.711 220.984 L 261.285 216.500 261.392 221.422 M 290 218.900 C 290 219.395, 288.395 219.800, 286.433 219.800 C 284.472 219.800, 282.597 220.070, 282.267 220.400 C 281.937 220.730, 283.767 221, 286.333 221 C 289.815 221, 291 220.619, 291 219.500 C 291 218.675, 290.775 218, 290.500 218 C 290.225 218, 290 218.405, 290 218.900 M 96.029 219.961 C 93.848 221.340, 95.501 222.342, 98.651 221.551 C 100.799 221.012, 101.081 220.663, 99.948 219.947 C 98.147 218.807, 97.851 218.808, 96.029 219.961 M 256 222.417 C 256 224.296, 255.438 226.060, 254.750 226.338 C 254.003 226.639, 254.205 226.874, 255.250 226.921 C 256.638 226.984, 257 226.173, 257 223 C 257 220.800, 256.775 219, 256.500 219 C 256.225 219, 256 220.537, 256 222.417 M 174.473 223.044 C 173.605 224.448, 175.847 227.016, 177.872 226.937 C 178.974 226.894, 178.773 226.581, 177.250 225.969 C 176.012 225.471, 175 224.545, 175 223.910 C 175 223.120, 175.553 223.189, 176.750 224.128 C 178.336 225.371, 178.371 225.336, 177.128 223.750 C 175.525 221.706, 175.331 221.655, 174.473 223.044 M 286.921 223.750 C 285.794 225.239, 285.806 225.313, 286.998 224.250 C 287.769 223.563, 288.873 223.015, 289.450 223.033 C 290.027 223.052, 289.438 223.952, 288.139 225.033 C 286.841 226.115, 286.209 227, 286.734 227 C 288.154 227, 291.111 223.444, 290.336 222.669 C 289.258 221.591, 288.333 221.884, 286.921 223.750 M 740.768 226.725 C 742.565 226.947, 745.265 226.943, 746.768 226.715 C 748.271 226.486, 746.800 226.304, 743.500 226.310 C 740.200 226.315, 738.971 226.502, 740.768 226.725 M 737.750 235.732 C 740.087 235.943, 743.913 235.943, 746.250 235.732 C 748.587 235.522, 746.675 235.349, 742 235.349 C 737.325 235.349, 735.413 235.522, 737.750 235.732" stroke="none" fill="#a20e0d" fill-rule="evenodd"/></svg>