<svg xmlns="http://www.w3.org/2000/svg" width="970" height="257" viewBox="0 0 970 257" version="1.1"><path d="M 49.206 20.119 C 49.411 20.734, 56.874 25.266, 65.790 30.188 L 82 39.139 82 62.037 L 82 84.935 72.750 90.328 C 67.662 93.294, 60.183 97.636, 56.128 99.976 C 52.073 102.316, 49.217 104.516, 49.782 104.865 C 50.346 105.214, 77.288 105.369, 109.654 105.209 C 161.340 104.952, 168.265 104.740, 166.569 103.466 C 165.507 102.668, 157.520 98.083, 148.819 93.276 C 134.867 85.568, 133.002 84.240, 133.015 82.018 C 133.024 80.633, 133.361 78.981, 133.765 78.347 C 134.290 77.524, 144.810 77.075, 170.500 76.778 C 200.741 76.429, 207.700 76.075, 214 74.560 C 229.512 70.831, 239.494 64.509, 242.565 56.468 C 245.971 47.550, 242.203 38.972, 231.839 32.051 C 221.956 25.451, 211.136 22.216, 191.789 20.075 C 178.063 18.556, 48.699 18.596, 49.206 20.119 M 593 33.039 L 593 39.078 601.750 38.789 L 610.500 38.500 610.800 32.750 L 611.100 27 602.050 27 L 593 27 593 33.039 M 658 33 L 658 39 667 39 L 676 39 676 33 L 676 27 667 27 L 658 27 658 33 M 480.687 28.647 C 480.309 29.024, 480 32.183, 480 35.667 L 480 42 485.980 42 L 491.960 42 492.230 63.250 L 492.500 84.500 501 84.500 L 509.500 84.500 509.770 63.299 L 510.039 42.099 515.770 41.799 L 521.500 41.500 521.500 35 L 521.500 28.500 501.437 28.230 C 490.402 28.081, 481.065 28.269, 480.687 28.647 M 758 32.709 C 755.637 33.578, 752.845 36.306, 751.965 38.604 C 751.260 40.447, 750.120 40.773, 742.782 41.231 C 733.700 41.797, 727.354 44.228, 724.566 48.209 C 722.144 51.667, 722.549 58.365, 725.380 61.655 L 727.760 64.422 724.775 67.210 C 722.248 69.570, 721.858 70.575, 722.233 73.749 C 722.477 75.812, 723 78.229, 723.396 79.121 C 723.859 80.164, 723.560 80.955, 722.557 81.340 C 721.190 81.864, 721 80.085, 720.998 66.719 C 720.997 54.233, 720.683 50.871, 719.248 48 C 715.964 41.424, 707.028 39.162, 699.500 43 C 694.871 45.360, 694.930 45.350, 695.250 43.750 C 695.430 42.849, 693.193 42.419, 687.230 42.209 L 678.960 41.918 679.230 63.209 L 679.500 84.500 687.676 84.789 L 695.851 85.078 696.176 70.456 C 696.465 57.414, 696.707 55.683, 698.418 54.434 C 702.178 51.689, 702.927 54.093, 703.224 69.851 L 703.500 84.500 711.646 84.789 C 718.999 85.049, 719.746 85.257, 719.310 86.922 C 718.396 90.418, 721.661 94.704, 726.729 96.659 C 730.473 98.104, 734.190 98.492, 744 98.464 C 754.946 98.432, 757.026 98.150, 760.735 96.201 C 768.112 92.323, 770.295 86.716, 767.174 79.660 C 764.430 73.457, 760.982 71.869, 748.609 71.110 C 741.998 70.705, 738.522 70.081, 738.247 69.250 C 737.945 68.338, 739.548 67.998, 744.167 67.994 C 752.491 67.987, 757.703 66.451, 761.171 62.983 C 763.513 60.641, 764 59.303, 764 55.212 C 764 51.726, 763.389 49.493, 761.927 47.635 L 759.855 45 763.812 45 L 767.770 45 768.474 39.364 C 769.002 35.134, 768.844 33.516, 767.839 32.879 C 766.365 31.945, 760.361 31.841, 758 32.709 M 133.667 36.667 C 133.300 37.033, 133 42.625, 133 49.092 L 133 60.851 155.750 60.375 C 183.640 59.792, 184.225 59.709, 187.440 55.889 C 191.281 51.324, 191.055 44.788, 186.921 40.926 C 185.228 39.345, 182.191 37.592, 180.171 37.031 C 176.151 35.914, 134.743 35.590, 133.667 36.667 M 540.500 42.155 C 539.400 42.756, 537.938 43.954, 537.250 44.815 C 536.154 46.190, 536 46.113, 536 44.191 C 536 42.131, 535.552 42, 528.480 42 L 520.960 42 521.230 63.250 L 521.500 84.500 529.628 84.788 L 537.756 85.077 538.170 72.642 C 538.629 58.860, 539.362 57.009, 544.372 56.985 C 546.093 56.976, 548.039 56.627, 548.698 56.208 C 549.357 55.789, 552.930 55.700, 556.639 56.012 C 562.790 56.528, 563.555 56.377, 565.371 54.289 C 567.632 51.688, 571.174 51.300, 572.964 53.456 C 574.891 55.779, 573.477 56.679, 566.972 57.269 C 559.260 57.968, 550.508 62.116, 548.483 66.032 C 547.668 67.610, 547 70.730, 547 72.965 C 547 76.187, 547.699 77.792, 550.372 80.709 C 553.485 84.106, 554.252 84.421, 560.346 84.809 C 565.620 85.145, 567.737 84.818, 570.875 83.182 C 574.714 81.181, 574.813 81.178, 575.303 83.050 C 575.775 84.855, 576.798 84.951, 593.152 84.732 L 610.500 84.500 610.500 63.500 L 610.500 42.500 601.750 42.211 L 593 41.922 592.948 47.711 C 592.919 50.895, 592.941 59.237, 592.997 66.250 C 593.058 73.954, 592.712 79, 592.121 79 C 591.543 79, 591.013 72.907, 590.822 64.078 C 590.515 49.849, 590.386 49.034, 588.059 46.559 C 581.302 39.375, 559.738 39.328, 553.017 46.482 C 549.768 49.940, 549 49.657, 549 45 C 549 41.148, 548.880 41.001, 545.750 41.030 C 543.962 41.047, 541.600 41.553, 540.500 42.155 M 633.750 43.011 C 630.550 44.749, 630 44.819, 630 43.483 C 630 42.167, 628.691 41.965, 621.750 42.210 L 613.500 42.500 613.228 62.372 C 613.035 76.495, 613.297 82.653, 614.133 83.661 C 615.003 84.709, 617.291 85.003, 622.905 84.789 L 630.500 84.500 631 70.166 C 631.441 57.529, 631.727 55.667, 633.418 54.433 C 637.178 51.690, 637.927 54.093, 638.224 69.851 L 638.500 84.500 647 84.500 L 655.500 84.500 655.775 68.904 C 656.081 51.506, 655.178 46.936, 650.791 43.681 C 646.824 40.737, 638.536 40.411, 633.750 43.011 M 658.230 63.211 L 658.500 84.500 667 84.500 L 675.500 84.500 675.500 63.500 L 675.500 42.500 666.730 42.211 L 657.960 41.922 658.230 63.211 M 741.461 51.405 C 740.419 52.167, 739.950 53.667, 740.164 55.549 C 740.428 57.871, 741.051 58.564, 743.086 58.801 C 746.322 59.177, 748.416 56.792, 747.623 53.632 C 746.920 50.832, 743.791 49.701, 741.461 51.405 M 570.273 66.200 C 564.365 67.748, 563.291 74, 568.933 74 C 572.297 74, 574.322 71.354, 573.812 67.628 C 573.532 65.587, 573.170 65.441, 570.273 66.200 M 302.519 78.034 C 278.972 80.725, 253.072 91.453, 239.522 104.128 C 230.854 112.237, 228.593 117.068, 229.239 126.100 C 230.089 137.975, 236.279 145.218, 253 153.905 C 272.136 163.847, 290.973 167.916, 321.630 168.730 C 357.445 169.682, 380.222 164.006, 394.791 150.500 C 400.840 144.891, 403.348 138.478, 401.938 132.224 C 400.504 125.869, 395.004 122.324, 394.996 127.750 C 394.979 140.601, 371.108 149.886, 337.881 149.965 C 313.406 150.024, 299.127 146.471, 292.442 138.661 C 288.155 133.652, 286.633 128.315, 287.256 120.471 C 288.263 107.782, 296.196 99.204, 310.500 95.337 C 318.075 93.289, 335.281 92.571, 345.156 93.892 C 364.434 96.470, 379.234 102.096, 389.706 110.826 C 393.120 113.672, 396.157 116, 396.456 116 C 396.755 116, 397 107.900, 397 98 C 397 84.240, 396.706 80.012, 395.750 80.049 C 395.063 80.077, 391.151 81.814, 387.057 83.909 L 379.614 87.719 371.870 84.893 C 358.467 80.002, 346.253 77.974, 327.500 77.527 C 318.150 77.305, 306.908 77.533, 302.519 78.034 M 735 85.750 C 735 88.388, 736.781 89, 744.459 89 C 748.659 89, 751.145 88.530, 751.926 87.589 C 753.665 85.494, 752.007 84.880, 742.935 84.258 C 735.442 83.745, 735 83.828, 735 85.750" stroke="none" fill="#eb1b23" fill-rule="evenodd"/><path d="M 826.475 28.060 C 822.189 29.307, 817.041 34.972, 816.356 39.196 C 815.967 41.589, 816.428 44.180, 817.790 47.259 L 819.797 51.796 816.181 54.148 C 803.417 62.449, 806.026 78.882, 820.899 83.862 C 826.183 85.631, 838.833 85.247, 843.439 83.178 C 847.214 81.483, 847.526 81.484, 850.901 83.204 C 854.578 85.079, 864.413 85.659, 866.805 84.142 C 867.699 83.575, 868.013 81.456, 867.805 77.407 L 867.500 71.500 863.242 71.192 L 858.984 70.884 861.872 66.687 C 865.691 61.135, 868.235 53.742, 866.639 52.831 C 865.995 52.463, 862.374 52.013, 858.593 51.831 L 851.719 51.500 850.541 54.940 C 849.111 59.114, 847.902 59.654, 845.625 57.138 C 843.966 55.305, 844.036 55.141, 847.341 53.098 C 856.792 47.257, 855.878 33.571, 845.729 28.964 C 841.207 26.911, 831.923 26.475, 826.475 28.060 M 833.667 38.667 C 832.428 39.906, 832.990 42.681, 834.814 44.331 C 836.985 46.296, 839 44.888, 839 41.407 C 839 38.763, 835.413 36.920, 833.667 38.667 M 826.607 63.582 C 824.767 68.377, 827.309 72, 832.512 72 C 837.455 72, 837.706 70.307, 833.412 65.910 C 829.292 61.691, 827.560 61.098, 826.607 63.582 M 148 83.835 C 148 84.295, 155.205 88.682, 164.012 93.585 L 180.024 102.500 179.762 124.971 L 179.500 147.441 163.272 156.471 C 154.346 161.437, 147.034 165.838, 147.022 166.250 C 147.010 166.662, 172.740 167, 204.200 167 C 238.696 167, 261.023 166.638, 260.450 166.088 C 259.928 165.586, 252.525 161.137, 244 156.201 L 228.500 147.227 228.232 124.813 L 227.963 102.399 242.732 94.262 C 250.854 89.787, 258.400 85.437, 259.500 84.595 C 261.303 83.214, 255.916 83.060, 204.750 83.032 C 173.537 83.014, 148 83.376, 148 83.835 M 510.994 108.874 C 498.572 112.950, 492.438 122.821, 492.585 138.500 C 492.750 156.028, 502.312 166.268, 518.558 166.314 C 524.485 166.330, 526.478 165.866, 530.986 163.417 C 536.538 160.400, 541.930 153.658, 542.070 149.554 C 542.116 148.217, 542.627 148.825, 543.533 151.293 C 545.716 157.242, 548.435 160.374, 554.079 163.447 C 566.231 170.061, 583.320 165.136, 588.183 153.619 C 589.463 150.587, 589.514 150.710, 590 158 L 590.500 165.500 599 165.500 L 607.500 165.500 607.744 152.500 C 608.049 136.291, 608.325 135, 611.493 135 L 613.948 135 614.224 150.250 L 614.500 165.500 623.250 165.789 L 632 166.078 632 161.343 L 632 156.608 635.250 159.692 C 640.736 164.898, 644.604 166.299, 653.489 166.300 C 662.761 166.300, 668.738 164.289, 672.401 159.935 L 674.795 157.090 675.999 159.996 C 677.420 163.427, 680.223 165.429, 684.885 166.342 C 688.810 167.110, 695.717 165.513, 698.250 163.252 C 699.860 161.815, 700 161.866, 700 163.885 C 700 165.992, 700.334 166.069, 708.250 165.790 L 716.500 165.500 716.500 144.500 L 716.500 123.500 707.750 123.211 L 699 122.922 699 136.890 C 699 148.254, 698.707 151.150, 697.429 152.429 C 693.308 156.549, 692 152.726, 692 136.566 L 692 123 683.500 123 L 675 123 674.844 125.750 C 674.759 127.263, 674.776 129.512, 674.882 130.750 C 675.149 133.857, 673.823 133.555, 671.832 130.056 C 666.571 120.809, 646.750 119.562, 637.959 127.925 C 634.361 131.347, 634 132.154, 634 136.768 C 634 145.490, 639.776 149.821, 653.772 151.595 C 659.906 152.373, 661.217 153.587, 657.463 155.014 C 654.152 156.273, 647.469 154.666, 646.601 152.402 C 645.997 150.829, 643.979 150.868, 634.750 152.633 L 632 153.159 631.985 142.329 C 631.969 130.568, 631.187 127.945, 626.699 124.613 C 623.088 121.932, 613.607 121.717, 609.773 124.229 C 607.555 125.683, 607.105 125.716, 606.624 124.462 C 606.196 123.347, 604.156 123, 598.031 123 L 590 123 589.961 131.250 L 589.922 139.500 588.406 136 C 584.696 127.435, 576.909 122.665, 566.475 122.567 C 560.819 122.513, 558.483 122.998, 554.484 125.055 C 548.514 128.126, 544.075 134.020, 543.283 139.930 L 542.711 144.191 535.106 143.850 C 526.966 143.485, 525 144.079, 525 146.904 C 525 149.569, 521.755 152, 518.197 152 C 513.563 152, 511.999 148.289, 512.004 137.300 C 512.008 126.612, 514.076 122, 518.863 122 C 522.383 122, 523.913 123.686, 524.679 128.411 L 525.262 132 533.572 132 C 538.142 132, 542.164 131.544, 542.508 130.987 C 543.563 129.281, 540.139 119.319, 537.366 116.023 C 533.445 111.364, 527.511 108.751, 520 108.376 C 516.425 108.198, 512.372 108.422, 510.994 108.874 M 771.667 108.667 C 771.300 109.033, 771 111.733, 771 114.667 L 771 120 780 120 L 789 120 789 114 L 789 108 780.667 108 C 776.083 108, 772.033 108.300, 771.667 108.667 M 721.234 137.250 L 721.500 165.500 730 165.500 L 738.500 165.500 738.776 150.250 L 739.052 135 741.526 135 L 744 135 744 145.852 C 744 155.457, 744.260 157.095, 746.263 160.102 C 747.508 161.971, 750.264 164.351, 752.388 165.392 C 755.686 167.008, 757.216 167.154, 762.875 166.392 L 769.500 165.500 769.796 159.313 L 770.092 153.126 766.296 152.813 L 762.500 152.500 762.211 143.750 L 761.922 135 765.961 135 L 770 135 770 129 L 770 123 766 123 L 762 123 762 116.559 C 762 113.016, 761.583 109.860, 761.073 109.545 C 760.563 109.230, 756.993 109.266, 753.138 109.624 L 746.130 110.275 745.448 116.638 C 744.786 122.826, 744.688 123, 741.884 123 L 739 123 739 116 L 739 109 729.984 109 L 720.969 109 721.234 137.250 M 870.259 114.487 C 868.365 115.310, 866.361 117.270, 865.439 119.198 L 863.861 122.500 856.174 122.543 C 843.235 122.615, 836 127.575, 836 136.374 C 836 138.634, 836.887 140.901, 838.541 142.866 L 841.082 145.886 838.959 147.022 C 837.792 147.646, 836.216 149.585, 835.458 151.329 C 834.178 154.270, 834.074 153.666, 834.024 143 C 833.966 130.541, 833.222 127.971, 828.699 124.613 C 825.088 121.932, 815.607 121.717, 811.773 124.229 C 809.555 125.683, 809.105 125.716, 808.624 124.462 C 808.196 123.347, 806.156 123, 800.031 123 L 792 123 792 144.539 L 792 166.078 800.750 165.789 L 809.500 165.500 809.744 152.500 C 810.047 136.366, 810.374 134.771, 813.285 135.185 C 815.433 135.490, 815.515 135.953, 816 150.500 L 816.500 165.500 824.750 165.790 L 833 166.081 833 168.959 C 833 173.462, 833.941 174.922, 838.373 177.293 C 842.044 179.256, 843.990 179.500, 856 179.500 C 868.057 179.500, 869.998 179.255, 874.157 177.206 C 879.734 174.458, 882.527 169.636, 881.655 164.262 C 880.264 155.692, 875.656 152.971, 861.289 152.238 C 848.770 151.599, 847.815 149.765, 859.579 148.954 C 868.391 148.346, 872.358 146.800, 875.296 142.829 C 877.980 139.202, 877.911 132.723, 875.148 128.987 L 873.024 126.114 877.262 125.807 L 881.500 125.500 881.808 120.095 C 882.015 116.447, 881.690 114.420, 880.808 113.860 C 878.838 112.611, 873.900 112.904, 870.259 114.487 M 771.447 124.278 C 771.177 124.981, 771.079 134.544, 771.228 145.528 L 771.500 165.500 780.250 165.789 L 789 166.078 789 144.539 L 789 123 780.469 123 C 774.466 123, 771.792 123.379, 771.447 124.278 M 853.500 134 C 852.389 137.500, 853.848 140, 857 140 C 860.152 140, 861.611 137.500, 860.500 134 C 860.060 132.613, 858.987 132, 857 132 C 855.013 132, 853.940 132.613, 853.500 134 M 649.499 134.002 C 648.670 135.343, 652.242 136.567, 659.336 137.374 C 665.450 138.069, 669.757 139.798, 671.945 142.434 C 674.075 145, 674.673 144.273, 674.864 138.886 C 675.041 133.886, 674.988 133.786, 672.522 134.405 C 665.579 136.148, 661.150 136.218, 658.872 134.623 C 656.305 132.825, 650.465 132.438, 649.499 134.002 M 562.845 136.250 C 562.172 137.488, 561.642 141.616, 561.668 145.425 C 561.708 151.313, 562.043 152.617, 563.906 154.125 C 568.220 157.618, 571 153.845, 571 144.500 C 571 137.119, 569.681 134, 566.560 134 C 565.008 134, 563.609 134.847, 562.845 136.250 M 834.039 158.750 C 834.018 161.088, 834.423 163, 834.941 163 C 836.764 163, 836.975 161.171, 835.534 157.853 L 834.078 154.500 834.039 158.750 M 848.368 166.485 C 847.981 167.492, 848.286 168.567, 849.104 169.086 C 851.118 170.360, 864.748 170.217, 865.554 168.913 C 866.737 166.999, 864.683 166.195, 856.763 165.473 C 849.976 164.854, 848.946 164.978, 848.368 166.485 M 80.775 189.505 C 77.371 191.420, 76 193.919, 76 198.212 C 76 207.564, 88.190 211.317, 94.440 203.889 C 97.806 199.889, 97.742 195.862, 94.250 191.954 C 90.914 188.221, 84.976 187.141, 80.775 189.505 M 83 191.270 C 79.536 193.056, 77.718 197.128, 78.945 200.355 C 82.078 208.594, 94 206.641, 94 197.888 C 94 192.396, 87.917 188.735, 83 191.270 M 82.055 194.657 C 79.786 197.542, 80.065 200.606, 82.792 202.750 C 84.691 204.243, 89 204.416, 89 203 C 89 202.450, 88.090 202, 86.979 202 C 85.799 202, 84.488 200.971, 83.832 199.530 C 82.245 196.048, 84.292 193.686, 88.159 194.535 C 91.154 195.193, 92.156 193.658, 89.418 192.607 C 86.326 191.420, 84.117 192.035, 82.055 194.657 M 104.565 193.895 C 104.260 194.388, 104.684 195.048, 105.506 195.364 C 106.679 195.814, 107 197.882, 107 205 C 107 212.118, 106.679 214.186, 105.506 214.636 C 102.924 215.627, 104.953 217, 109 217 C 113.047 217, 115.076 215.627, 112.494 214.636 C 111.559 214.277, 111 212.742, 111 210.531 C 111 207.518, 111.336 207, 113.289 207 C 114.547 207, 117.335 206.104, 119.484 205.008 C 122.483 203.479, 123.573 203.305, 124.171 204.258 C 125.360 206.154, 124.828 213.029, 123.380 214.477 C 121.652 216.205, 122.668 217, 126.608 217 C 130.154 217, 131.909 215.563, 129.494 214.636 C 128.477 214.246, 128 212.636, 128 209.590 C 128 204.928, 129.204 203.336, 132.338 203.853 C 133.658 204.070, 134.074 203.640, 133.813 202.328 C 133.509 200.796, 132.643 200.552, 128.471 200.820 C 123.719 201.125, 123.439 201, 122.336 198.080 C 121.668 196.309, 120.062 194.594, 118.525 194.010 C 115.238 192.760, 105.317 192.678, 104.565 193.895 M 159 194 C 159 194.550, 159.675 195, 160.500 195 C 162.706 195, 162.711 213.790, 160.506 214.636 C 157.141 215.927, 160.571 216.972, 167.803 216.859 C 176.453 216.723, 177.575 216.398, 175.987 214.485 C 174.330 212.488, 175.179 204.905, 177.202 203.637 C 178.138 203.051, 179.261 202.927, 179.697 203.363 C 180.738 204.405, 180.681 213.013, 179.618 215.250 C 178.921 216.716, 179.281 217, 181.834 217 C 184.999 217, 186.784 215.603, 185.016 214.510 C 184.457 214.165, 184 211.264, 184 208.063 C 184 201.274, 182.540 199.360, 178.263 200.537 C 176.743 200.956, 174.262 201.197, 172.750 201.074 C 169.891 200.840, 169.239 201.839, 171.060 203.660 C 171.644 204.244, 171.981 206.921, 171.810 209.610 C 171.527 214.077, 171.283 214.500, 169 214.500 C 166.534 214.500, 166.496 214.374, 166.212 205.233 C 165.976 197.636, 166.202 195.860, 167.462 195.376 C 170.579 194.180, 168.859 193, 164 193 C 161.250 193, 159 193.450, 159 194 M 232 194.500 C 232 195.333, 232.889 196, 234 196 C 235.111 196, 236 195.333, 236 194.500 C 236 193.667, 235.111 193, 234 193 C 232.889 193, 232 193.667, 232 194.500 M 251.815 195.874 C 248.752 198.611, 248.500 199.297, 248.500 204.895 C 248.500 210.106, 248.868 211.323, 251.132 213.587 C 254.538 216.992, 261.329 217.916, 265.834 215.586 C 267.575 214.685, 269 213.510, 269 212.974 C 269 211.613, 267.798 211.755, 264.226 213.537 C 260.344 215.474, 256.629 214.612, 253.886 211.138 C 251.060 207.559, 251.678 199.489, 254.982 196.814 C 258.214 194.197, 262.456 194.493, 264.821 197.500 C 267.570 200.995, 269.193 200.690, 268.813 196.750 L 268.500 193.500 261.815 193.206 C 255.619 192.933, 254.888 193.128, 251.815 195.874 M 310.744 193.589 C 310.420 193.913, 310.404 195.713, 310.708 197.589 C 311.233 200.823, 311.109 201, 308.319 201 C 303.963 201, 301 204.255, 301 209.039 C 301 215.024, 303.638 217.162, 310.217 216.507 C 315.570 215.974, 318.014 214.745, 316.087 213.554 C 315.422 213.143, 315 209.021, 315 202.941 C 315 193.968, 314.821 193, 313.167 193 C 312.158 193, 311.068 193.265, 310.744 193.589 M 332.625 193.798 C 332.354 194.237, 332.545 195.249, 333.051 196.048 C 333.556 196.846, 333.976 201.227, 333.985 205.781 C 333.997 212.216, 333.667 214.191, 332.506 214.636 C 330.043 215.581, 331.876 217, 335.559 217 C 338.879 217, 340.070 215.779, 338 214.500 C 337.450 214.160, 337 212.953, 337 211.819 C 337 210.038, 337.220 209.938, 338.604 211.086 C 339.486 211.819, 340.600 213.449, 341.079 214.709 C 341.873 216.797, 342.573 217, 348.975 217 C 355.396 217, 357.579 216.094, 355 214.500 C 354.450 214.160, 354 210.984, 354 207.441 C 354 201.237, 353.908 201, 351.500 201 C 349.944 201, 349 201.567, 349 202.500 C 349 203.325, 349.450 204, 350 204 C 351.219 204, 351.308 211.966, 350.110 213.857 C 348.831 215.874, 345.565 214.430, 342.593 210.533 C 339.656 206.683, 339.984 204.620, 343.869 202.510 L 346.500 201.080 343.750 201.040 C 341.954 201.014, 341 201.521, 341 202.500 C 341 203.325, 340.812 204, 340.582 204 C 340.352 204, 339.452 204.273, 338.582 204.607 C 337.246 205.120, 337 204.265, 337 199.107 C 337 193.729, 336.768 193, 335.059 193 C 333.991 193, 332.896 193.359, 332.625 193.798 M 111.678 195.656 C 111.305 196.028, 111 198.058, 111 200.167 C 111 203.698, 111.220 204, 113.800 204 C 120.449 204, 120.928 197.598, 114.428 195.611 C 113.288 195.263, 112.050 195.283, 111.678 195.656 M 136 202 C 132.702 205.298, 132.999 211.500, 136.611 214.750 C 143.031 220.526, 151.776 213.393, 148.787 204.818 C 148.238 203.245, 146.967 201.517, 145.961 200.979 C 142.942 199.363, 138.145 199.855, 136 202 M 188.750 201.080 C 185.651 202.885, 186.628 206.488, 191 209.381 C 193.200 210.837, 195 212.486, 195 213.046 C 195 214.931, 191.748 215.376, 190.495 213.662 C 188.848 211.409, 187 211.564, 187 213.955 C 187 216.387, 192.741 217.744, 195.895 216.056 C 200.093 213.809, 198.333 209.656, 191.358 205.354 C 189.845 204.420, 189.736 203.961, 190.775 202.879 C 191.822 201.787, 192.420 201.781, 194.122 202.844 C 196.490 204.323, 197.519 203.794, 196.655 201.543 C 195.982 199.790, 191.423 199.523, 188.750 201.080 M 201.529 201.355 C 200.394 202.185, 199.920 203.348, 200.306 204.355 C 201.175 206.619, 203.077 206.420, 203.710 204 C 204.386 201.417, 208 201.314, 208 203.879 C 208 205.013, 206.840 206.238, 205.072 206.970 C 203.462 207.637, 201.396 209.009, 200.482 210.020 C 197.217 213.628, 201.452 218.434, 205.831 216.091 C 206.879 215.529, 208.013 215.346, 208.350 215.684 C 209.428 216.761, 219.800 217.132, 220.428 216.116 C 220.761 215.578, 220.575 214.856, 220.016 214.510 C 218.282 213.438, 218.763 204.305, 220.590 203.604 C 221.465 203.268, 222.590 203.247, 223.090 203.556 C 224.337 204.326, 224.245 213.730, 222.984 214.510 C 220.662 215.945, 223.446 216.806, 230.498 216.834 C 237.383 216.861, 239.557 216.080, 237 214.500 C 236.450 214.160, 236 210.984, 236 207.441 C 236 201.279, 235.894 201, 233.559 201 C 230.898 201, 229.360 202.487, 230.984 203.490 C 231.543 203.835, 232 206.566, 232 209.559 C 232 214.333, 231.755 215, 230 215 C 228.240 215, 228 214.333, 228 209.434 C 228 206.373, 227.534 202.998, 226.965 201.934 C 225.928 199.996, 221.585 199.245, 220.603 200.833 C 220.320 201.292, 218.772 201.473, 217.162 201.237 C 215.553 201.001, 213.932 201.301, 213.559 201.904 C 213.187 202.507, 213.359 203, 213.941 203 C 214.569 203, 215 205.454, 215 209.035 C 215 214.760, 214.897 215.015, 213 214 C 211.389 213.138, 211 211.906, 211 207.665 C 211 204.769, 210.460 201.860, 209.800 201.200 C 208.196 199.596, 203.823 199.678, 201.529 201.355 M 272.174 202.314 C 270.657 203.930, 270 205.893, 270 208.814 C 270 215.825, 275.457 219.170, 280.794 215.432 C 283.692 213.402, 282.697 211.725, 279.468 213.196 C 277.449 214.117, 276.649 213.992, 275.004 212.504 C 273.902 211.506, 273 209.883, 273 208.897 C 273 207.444, 273.978 207.047, 278.171 206.802 C 283.984 206.463, 285.101 205.101, 282.063 202.063 C 279.308 199.308, 274.893 199.421, 272.174 202.314 M 289 200.731 C 285.662 201.124, 282.188 203, 284.800 203 C 285.600 203, 286 205, 286 209 C 286 212.556, 285.569 215, 284.941 215 C 284.359 215, 284.160 215.450, 284.500 216 C 285.280 217.261, 290.687 217.315, 291.457 216.069 C 291.774 215.557, 291.575 214.856, 291.016 214.510 C 289.282 213.438, 289.763 204.305, 291.590 203.604 C 292.465 203.268, 293.590 203.247, 294.090 203.556 C 295.337 204.326, 295.245 213.730, 293.984 214.510 C 292.268 215.571, 293.963 217, 296.936 217 C 299.691 217, 299.745 216.894, 299.329 212.250 C 298.359 201.419, 297.522 199.632, 293.668 200.160 C 293.026 200.248, 290.925 200.505, 289 200.731 M 323 200.706 C 316.737 202.996, 314.811 211.133, 319.635 214.927 C 321.084 216.067, 322.863 217, 323.588 217 C 325.853 217, 329.864 214.798, 330.469 213.221 C 331.351 210.921, 330.224 210.487, 328.177 212.339 C 324.895 215.310, 322.066 214.180, 320.572 209.304 C 319.946 207.260, 320.261 207.087, 325.121 206.804 C 330.984 206.463, 332.109 205.109, 329.063 202.063 C 326.981 199.981, 325.742 199.704, 323 200.706 M 359.104 201.914 C 357.429 202.975, 358.438 206.354, 360.251 205.750 C 360.938 205.521, 361.507 204.921, 361.515 204.417 C 361.524 203.912, 361.888 202.938, 362.324 202.250 C 363.252 200.790, 361.216 200.577, 359.104 201.914 M 365.703 202.056 C 367.166 203.576, 365.654 207, 363.521 207 C 362.746 207, 360.904 208.039, 359.428 209.309 C 357.428 211.028, 356.917 212.163, 357.423 213.757 C 358.275 216.442, 361.279 217.456, 364.026 215.986 C 365.542 215.175, 366.493 215.164, 367.437 215.948 C 368.785 217.066, 372 216.399, 372 215 C 372 214.568, 371.348 213.964, 370.551 213.658 C 369.571 213.282, 369.005 211.230, 368.801 207.311 C 368.547 202.432, 368.185 201.463, 366.500 201.163 C 364.921 200.881, 364.754 201.069, 365.703 202.056 M 138.571 203.571 C 136.723 205.420, 136.619 206.869, 138.063 210.665 C 139.731 215.054, 141.873 215.984, 144.429 213.429 C 146.437 211.421, 146.444 207.078, 144.443 204.223 C 142.610 201.606, 140.744 201.399, 138.571 203.571 M 274.701 202.632 C 273.295 204.038, 274.059 205, 276.583 205 C 278.205 205, 279.012 204.535, 278.750 203.750 C 278.269 202.304, 275.730 201.603, 274.701 202.632 M 305.068 203.874 C 303.425 206.944, 303.796 210.505, 305.963 212.466 C 309.341 215.524, 311.148 213.768, 310.803 207.761 C 310.542 203.228, 310.198 202.457, 308.318 202.189 C 306.940 201.993, 305.742 202.614, 305.068 203.874 M 320.638 203.500 C 320.196 204.654, 320.856 205, 323.500 205 C 326.144 205, 326.804 204.654, 326.362 203.500 C 326.045 202.675, 324.757 202, 323.500 202 C 322.243 202, 320.955 202.675, 320.638 203.500 M 204.861 209.929 C 203.037 211.419, 202.769 212.132, 203.683 213.062 C 205.467 214.878, 208 213.394, 208 210.531 C 208 207.493, 207.872 207.469, 204.861 209.929 M 362.861 209.929 C 361.037 211.419, 360.769 212.132, 361.683 213.062 C 363.467 214.878, 366 213.394, 366 210.531 C 366 207.493, 365.872 207.469, 362.861 209.929" stroke="none" fill="#3c43cb" fill-rule="evenodd"/></svg>